<svg xmlns="http://www.w3.org/2000/svg" width="1024" height="1024" viewBox="0 0 680 680">
<title>M13 M8 — DJ Library &amp; Discovery AI</title>
<desc>M13 M8 logo — same cosmic wheel as M13 but with mirrored M forming an 8, and the Full Moon placed at 2 degrees Gemini per Vedic sidereal astrology — November 24 2026 M8 launch date encoded</desc>
<defs>
  <radialGradient id="moonGradM8" cx="60%" cy="35%" r="65%">
    <stop offset="0%" stop-color="#fffdf0" stop-opacity="1"/>
    <stop offset="40%" stop-color="#f0e8d0" stop-opacity="1"/>
    <stop offset="75%" stop-color="#d8c89a" stop-opacity="1"/>
    <stop offset="100%" stop-color="#b8a870" stop-opacity="1"/>
  </radialGradient>
  <radialGradient id="moonGlowM8" cx="50%" cy="50%" r="50%">
    <stop offset="70%" stop-color="#f0c040" stop-opacity="0"/>
    <stop offset="100%" stop-color="#f0c040" stop-opacity="0.15"/>
  </radialGradient>
</defs>

<!-- Background -->
<circle cx="340" cy="340" r="330" fill="#060610"/>

<!-- Outermost rings — brightest ice #c2e8f5 -->
<circle cx="340" cy="340" r="295" fill="none" stroke="#c2e8f5" stroke-width="0.8" stroke-opacity="0.65"/>
<circle cx="340" cy="340" r="288" fill="none" stroke="#c2e8f5" stroke-width="0.5" stroke-opacity="0.15"/>

<!-- Zodiac band rings — #a8d8ee -->
<circle cx="340" cy="340" r="280" fill="none" stroke="#a8d8ee" stroke-width="0.5" stroke-opacity="0.4"/>
<circle cx="340" cy="340" r="258" fill="none" stroke="#a8d8ee" stroke-width="0.5" stroke-opacity="0.4"/>

<!-- Zodiac dividers -->
<g fill="none" stroke="#a8d8ee" stroke-width="0.5" stroke-opacity="0.25">
  <line x1="340" y1="60" x2="340" y2="82" transform="rotate(0,340,340)"/>
  <line x1="340" y1="60" x2="340" y2="82" transform="rotate(30,340,340)"/>
  <line x1="340" y1="60" x2="340" y2="82" transform="rotate(60,340,340)"/>
  <line x1="340" y1="60" x2="340" y2="82" transform="rotate(90,340,340)"/>
  <line x1="340" y1="60" x2="340" y2="82" transform="rotate(120,340,340)"/>
  <line x1="340" y1="60" x2="340" y2="82" transform="rotate(150,340,340)"/>
  <line x1="340" y1="60" x2="340" y2="82" transform="rotate(180,340,340)"/>
  <line x1="340" y1="60" x2="340" y2="82" transform="rotate(210,340,340)"/>
  <line x1="340" y1="60" x2="340" y2="82" transform="rotate(240,340,340)"/>
  <line x1="340" y1="60" x2="340" y2="82" transform="rotate(270,340,340)"/>
  <line x1="340" y1="60" x2="340" y2="82" transform="rotate(300,340,340)"/>
  <line x1="340" y1="60" x2="340" y2="82" transform="rotate(330,340,340)"/>
</g>

<!-- ARIES -->
<g transform="rotate(0,340,340)"><g fill="none" stroke="#a8d8ee" stroke-width="0.9" stroke-opacity="0.55" stroke-linecap="round" stroke-linejoin="round" transform="translate(340,71)">
  <path d="M-6,4 C-6,-2 -2,-7 0,-7 C2,-7 6,-2 6,4"/>
  <path d="M-4,4 C-8,0 -9,-5 -6,-8"/>
  <path d="M4,4 C8,0 9,-5 6,-8"/>
  <line x1="0" y1="-7" x2="0" y2="4"/>
</g></g>

<!-- TAURUS -->
<g transform="rotate(30,340,340)"><g fill="none" stroke="#a8d8ee" stroke-width="0.9" stroke-opacity="0.55" stroke-linecap="round" stroke-linejoin="round" transform="translate(340,71)">
  <circle cx="0" cy="2" r="5"/>
  <path d="M-5,-3 C-5,-8 -2,-9 0,-9 C2,-9 5,-8 5,-3"/>
</g></g>

<!-- GEMINI — WHITE HIGHLIGHTED — moon is here, M8 launch date -->
<g transform="rotate(60,340,340)"><g fill="none" stroke="#ffffff" stroke-width="1.2" stroke-opacity="0.95" stroke-linecap="round" stroke-linejoin="round" transform="translate(340,71)">
  <line x1="-5" y1="-8" x2="-5" y2="8"/>
  <line x1="5" y1="-8" x2="5" y2="8"/>
  <path d="M-7,-8 C-3,-6 3,-6 7,-8"/>
  <path d="M-7,8 C-3,6 3,6 7,8"/>
</g></g>

<!-- CANCER -->
<g transform="rotate(90,340,340)"><g fill="none" stroke="#a8d8ee" stroke-width="0.9" stroke-opacity="0.55" stroke-linecap="round" stroke-linejoin="round" transform="translate(340,71)">
  <path d="M-7,2 C-7,-1 -4,-3 -1,-2 C2,-1 3,2 1,4 C-1,6 -5,5 -6,3"/>
  <path d="M7,-2 C7,1 4,3 1,2 C-2,1 -3,-2 -1,-4 C1,-6 5,-5 6,-3"/>
</g></g>

<!-- LEO -->
<g transform="rotate(120,340,340)"><g fill="none" stroke="#a8d8ee" stroke-width="0.9" stroke-opacity="0.55" stroke-linecap="round" stroke-linejoin="round" transform="translate(340,71)">
  <circle cx="-1" cy="1" r="4"/>
  <path d="M3,1 C6,1 8,-1 8,-4 C8,-7 6,-9 4,-8"/>
</g></g>

<!-- VIRGO -->
<g transform="rotate(150,340,340)"><g fill="none" stroke="#a8d8ee" stroke-width="0.9" stroke-opacity="0.55" stroke-linecap="round" stroke-linejoin="round" transform="translate(340,71)">
  <line x1="-7" y1="-7" x2="-7" y2="6"/>
  <line x1="0" y1="-7" x2="0" y2="6"/>
  <line x1="7" y1="-7" x2="7" y2="2"/>
  <path d="M-7,-7 C-3,-9 3,-9 7,-7"/>
  <path d="M0,-1 C2,-1 4,1 4,3 C4,6 2,8 0,8 C-2,8 -4,6 -4,4"/>
  <path d="M7,2 C9,2 10,5 9,7"/>
</g></g>

<!-- LIBRA -->
<g transform="rotate(180,340,340)"><g fill="none" stroke="#a8d8ee" stroke-width="0.9" stroke-opacity="0.55" stroke-linecap="round" stroke-linejoin="round" transform="translate(340,71)">
  <line x1="-8" y1="2" x2="8" y2="2"/>
  <line x1="-8" y1="6" x2="8" y2="6"/>
  <path d="M-5,2 C-5,-2 -2,-5 0,-5 C2,-5 5,-2 5,2"/>
</g></g>

<!-- SCORPIO -->
<g transform="rotate(210,340,340)"><g fill="none" stroke="#a8d8ee" stroke-width="0.9" stroke-opacity="0.55" stroke-linecap="round" stroke-linejoin="round" transform="translate(340,71)">
  <line x1="-7" y1="-7" x2="-7" y2="4"/>
  <line x1="0" y1="-7" x2="0" y2="4"/>
  <line x1="7" y1="-7" x2="7" y2="0"/>
  <path d="M-7,-7 C-3,-9 3,-9 7,-7"/>
  <path d="M-1,4 C1,4 4,5 5,8 L7,6 M5,8 L8,8"/>
</g></g>

<!-- SAGITTARIUS — dimmed, this was M13 launch -->
<g transform="rotate(240,340,340)"><g fill="none" stroke="#a8d8ee" stroke-width="0.9" stroke-opacity="0.3" stroke-linecap="round" stroke-linejoin="round" transform="translate(340,71)">
  <line x1="-7" y1="7" x2="7" y2="-7"/>
  <line x1="7" y1="-7" x2="2" y2="-7"/>
  <line x1="7" y1="-7" x2="7" y2="-2"/>
  <line x1="-3" y1="1" x2="3" y2="-5"/>
</g></g>

<!-- CAPRICORN -->
<g transform="rotate(270,340,340)"><g fill="none" stroke="#a8d8ee" stroke-width="0.9" stroke-opacity="0.55" stroke-linecap="round" stroke-linejoin="round" transform="translate(340,71)">
  <path d="M-7,-7 L-7,4 C-7,7 -4,9 -1,8"/>
  <path d="M-1,4 C0,2 2,1 4,2 C7,3 8,6 6,8 C4,10 1,9 0,7"/>
  <line x1="-7" y1="-7" x2="7" y2="-7"/>
  <path d="M7,-7 C8,-4 7,0 5,2"/>
</g></g>

<!-- AQUARIUS -->
<g transform="rotate(300,340,340)"><g fill="none" stroke="#a8d8ee" stroke-width="0.9" stroke-opacity="0.55" stroke-linecap="round" stroke-linejoin="round" transform="translate(340,71)">
  <path d="M-8,-2 C-5,-5 -3,-5 0,-2 C3,1 5,1 8,-2"/>
  <path d="M-8,4 C-5,1 -3,1 0,4 C3,7 5,7 8,4"/>
</g></g>

<!-- PISCES -->
<g transform="rotate(330,340,340)"><g fill="none" stroke="#a8d8ee" stroke-width="0.9" stroke-opacity="0.55" stroke-linecap="round" stroke-linejoin="round" transform="translate(340,71)">
  <path d="M0,-8 C-5,-8 -8,-4 -8,0 C-8,4 -5,8 0,8"/>
  <path d="M0,-8 C5,-8 8,-4 8,0 C8,4 5,8 0,8"/>
  <line x1="-8" y1="0" x2="8" y2="0"/>
</g></g>

<!-- Circle of Fifths rings — #8ec4e0 -->
<circle cx="340" cy="340" r="250" fill="none" stroke="#8ec4e0" stroke-width="0.5" stroke-opacity="0.55"/>
<circle cx="340" cy="340" r="228" fill="none" stroke="#8ec4e0" stroke-width="0.5" stroke-opacity="0.55"/>

<!-- Circle of Fifths dividers -->
<g fill="none" stroke="#8ec4e0" stroke-width="0.5" stroke-opacity="0.38">
  <line x1="340" y1="90" x2="340" y2="112" transform="rotate(0,340,340)"/>
  <line x1="340" y1="90" x2="340" y2="112" transform="rotate(30,340,340)"/>
  <line x1="340" y1="90" x2="340" y2="112" transform="rotate(60,340,340)"/>
  <line x1="340" y1="90" x2="340" y2="112" transform="rotate(90,340,340)"/>
  <line x1="340" y1="90" x2="340" y2="112" transform="rotate(120,340,340)"/>
  <line x1="340" y1="90" x2="340" y2="112" transform="rotate(150,340,340)"/>
  <line x1="340" y1="90" x2="340" y2="112" transform="rotate(180,340,340)"/>
  <line x1="340" y1="90" x2="340" y2="112" transform="rotate(210,340,340)"/>
  <line x1="340" y1="90" x2="340" y2="112" transform="rotate(240,340,340)"/>
  <line x1="340" y1="90" x2="340" y2="112" transform="rotate(270,340,340)"/>
  <line x1="340" y1="90" x2="340" y2="112" transform="rotate(300,340,340)"/>
  <line x1="340" y1="90" x2="340" y2="112" transform="rotate(330,340,340)"/>
</g>

<!-- Musical keys — gold -->
<text font-family="-apple-system,sans-serif" font-size="11" font-weight="500" fill="#f0c040" fill-opacity="0.85" text-anchor="middle" dominant-baseline="middle" x="340" y="101" transform="rotate(0,340,340)">C</text>
<text font-family="-apple-system,sans-serif" font-size="11" font-weight="500" fill="#f0c040" fill-opacity="0.85" text-anchor="middle" dominant-baseline="middle" x="340" y="101" transform="rotate(30,340,340)">G</text>
<text font-family="-apple-system,sans-serif" font-size="11" font-weight="500" fill="#f0c040" fill-opacity="0.85" text-anchor="middle" dominant-baseline="middle" x="340" y="101" transform="rotate(60,340,340)">D</text>
<text font-family="-apple-system,sans-serif" font-size="11" font-weight="500" fill="#f0c040" fill-opacity="0.85" text-anchor="middle" dominant-baseline="middle" x="340" y="101" transform="rotate(90,340,340)">A</text>
<text font-family="-apple-system,sans-serif" font-size="11" font-weight="500" fill="#f0c040" fill-opacity="0.85" text-anchor="middle" dominant-baseline="middle" x="340" y="101" transform="rotate(120,340,340)">E</text>
<text font-family="-apple-system,sans-serif" font-size="11" font-weight="500" fill="#f0c040" fill-opacity="0.85" text-anchor="middle" dominant-baseline="middle" x="340" y="101" transform="rotate(150,340,340)">B</text>
<text font-family="-apple-system,sans-serif" font-size="11" font-weight="500" fill="#f0c040" fill-opacity="0.85" text-anchor="middle" dominant-baseline="middle" x="340" y="101" transform="rotate(180,340,340)">F&#x266F;</text>
<text font-family="-apple-system,sans-serif" font-size="11" font-weight="500" fill="#f0c040" fill-opacity="0.85" text-anchor="middle" dominant-baseline="middle" x="340" y="101" transform="rotate(210,340,340)">D&#x266D;</text>
<text font-family="-apple-system,sans-serif" font-size="11" font-weight="500" fill="#f0c040" fill-opacity="0.85" text-anchor="middle" dominant-baseline="middle" x="340" y="101" transform="rotate(240,340,340)">A&#x266D;</text>
<text font-family="-apple-system,sans-serif" font-size="11" font-weight="500" fill="#f0c040" fill-opacity="0.85" text-anchor="middle" dominant-baseline="middle" x="340" y="101" transform="rotate(270,340,340)">E&#x266D;</text>
<text font-family="-apple-system,sans-serif" font-size="11" font-weight="500" fill="#f0c040" fill-opacity="0.85" text-anchor="middle" dominant-baseline="middle" x="340" y="101" transform="rotate(300,340,340)">B&#x266D;</text>
<text font-family="-apple-system,sans-serif" font-size="11" font-weight="500" fill="#f0c040" fill-opacity="0.85" text-anchor="middle" dominant-baseline="middle" x="340" y="101" transform="rotate(330,340,340)">F</text>

<!-- Innermost boundary -->
<circle cx="340" cy="340" r="218" fill="none" stroke="#7ab0d0" stroke-width="0.5" stroke-opacity="0.5"/>

<!-- Stars — warm gold tones -->
<g fill="#c89820" fill-opacity="0.3">
  <circle cx="258" cy="185" r="0.8"/><circle cx="312" cy="165" r="0.9"/><circle cx="392" cy="170" r="0.7"/>
  <circle cx="448" cy="192" r="0.9"/><circle cx="482" cy="228" r="0.7"/><circle cx="496" cy="278" r="0.8"/>
  <circle cx="490" cy="342" r="0.7"/><circle cx="476" cy="402" r="0.9"/><circle cx="445" cy="450" r="0.7"/>
  <circle cx="398" cy="484" r="0.8"/><circle cx="340" cy="496" r="0.9"/><circle cx="278" cy="482" r="0.7"/>
  <circle cx="228" cy="454" r="0.8"/><circle cx="194" cy="412" r="0.9"/><circle cx="182" cy="356" r="0.7"/>
  <circle cx="192" cy="292" r="0.8"/><circle cx="220" cy="242" r="0.9"/><circle cx="268" cy="208" r="0.7"/>
  <circle cx="358" cy="192" r="0.8"/><circle cx="428" cy="212" r="0.7"/><circle cx="466" cy="260" r="0.8"/>
  <circle cx="470" cy="318" r="0.7"/><circle cx="458" cy="378" r="0.8"/><circle cx="426" cy="430" r="0.9"/>
  <circle cx="370" cy="464" r="0.7"/><circle cx="306" cy="462" r="0.8"/><circle cx="253" cy="437" r="0.7"/>
  <circle cx="208" cy="392" r="0.8"/><circle cx="196" cy="332" r="0.9"/><circle cx="208" cy="265" r="0.7"/>
</g>
<g fill="#ffd060" fill-opacity="0.45">
  <circle cx="272" cy="228" r="1.3"/><circle cx="340" cy="218" r="1.1"/><circle cx="410" cy="232" r="1.3"/>
  <circle cx="460" cy="280" r="1.1"/><circle cx="466" cy="350" r="1.3"/><circle cx="442" cy="418" r="1.1"/>
  <circle cx="394" cy="456" r="1.3"/><circle cx="328" cy="463" r="1.1"/><circle cx="264" cy="446" r="1.3"/>
  <circle cx="218" cy="406" r="1.1"/><circle cx="207" cy="340" r="1.3"/><circle cx="222" cy="272" r="1.1"/>
  <circle cx="264" cy="234" r="1.3"/><circle cx="418" cy="256" r="1.1"/><circle cx="452" cy="314" r="1.3"/>
  <circle cx="436" cy="380" r="1.1"/><circle cx="382" cy="436" r="1.3"/><circle cx="296" cy="441" r="1.1"/>
</g>
<g fill="#ffe8a0" fill-opacity="0.65">
  <circle cx="296" cy="258" r="1.4"/><circle cx="380" cy="244" r="1.2"/><circle cx="434" cy="298" r="1.4"/>
  <circle cx="430" cy="366" r="1.2"/><circle cx="396" cy="420" r="1.4"/><circle cx="324" cy="436" r="1.2"/>
  <circle cx="266" cy="409" r="1.4"/><circle cx="237" cy="358" r="1.2"/><circle cx="248" cy="298" r="1.4"/>
  <circle cx="288" cy="267" r="1.2"/><circle cx="363" cy="256" r="1.4"/>
</g>
<g fill="#ffffff">
  <circle cx="302" cy="285" r="1.8"/><circle cx="356" cy="272" r="1.5"/><circle cx="410" cy="292" r="1.8"/>
  <circle cx="434" cy="338" r="1.5"/><circle cx="419" cy="386" r="1.8"/><circle cx="382" cy="413" r="1.5"/>
  <circle cx="334" cy="419" r="1.8"/><circle cx="289" cy="401" r="1.5"/><circle cx="261" cy="368" r="1.8"/>
  <circle cx="257" cy="322" r="1.5"/><circle cx="277" cy="282" r="1.8"/><circle cx="318" cy="262" r="1.5"/>
  <circle cx="386" cy="268" r="1.8"/><circle cx="419" cy="312" r="1.5"/>
  <circle cx="318" cy="312" r="2.4"/><circle cx="369" cy="298" r="2.2"/>
  <circle cx="396" cy="352" r="2.4"/><circle cx="348" cy="389" r="2.2"/>
  <circle cx="297" cy="345" r="2.2"/><circle cx="340" cy="340" r="2.8"/>
</g>
<g stroke="#ffffff" stroke-width="0.5" stroke-opacity="0.4" fill="none">
  <line x1="318" y1="308" x2="318" y2="316"/><line x1="314" y1="312" x2="322" y2="312"/>
  <line x1="396" y1="348" x2="396" y2="356"/><line x1="392" y1="352" x2="400" y2="352"/>
  <line x1="340" y1="336" x2="340" y2="344"/><line x1="336" y1="340" x2="344" y2="340"/>
</g>

<!-- The 8 — M mirrored horizontally -->
<!-- Top diagonals pointing to centre — bright gold -->
<line x1="292" y1="305" x2="340" y2="340" fill="none" stroke="#f0c040" stroke-width="4.5" stroke-linecap="round" stroke-linejoin="round"/>
<line x1="388" y1="305" x2="340" y2="340" fill="none" stroke="#f0c040" stroke-width="4.5" stroke-linecap="round" stroke-linejoin="round"/>
<!-- Bottom diagonals pointing to centre — bright gold -->
<line x1="292" y1="375" x2="340" y2="340" fill="none" stroke="#f0c040" stroke-width="4.5" stroke-linecap="round" stroke-linejoin="round"/>
<line x1="388" y1="375" x2="340" y2="340" fill="none" stroke="#f0c040" stroke-width="4.5" stroke-linecap="round" stroke-linejoin="round"/>
<!-- Left and right verticals — darker gold -->
<line x1="292" y1="305" x2="292" y2="375" fill="none" stroke="#c89820" stroke-width="4.5" stroke-linecap="round" stroke-linejoin="round"/>
<line x1="388" y1="305" x2="388" y2="375" fill="none" stroke="#c89820" stroke-width="4.5" stroke-linecap="round" stroke-linejoin="round"/>

<!-- Centre point -->
<circle cx="340" cy="340" r="3.5" fill="#f0c040" fill-opacity="0.9"/>
<circle cx="340" cy="340" r="8" fill="#f0c040" fill-opacity="0.08"/>

<!-- Full Moon at 2 degrees Gemini — Vedic sidereal — November 24 2026
     Gemini at 60 degrees on wheel, 2 degrees in = 62 degrees from top
     Placing at radius 175 within star field
     x = 340 + 175*sin(62deg) = 340 + 154.5 = 494
     y = 340 - 175*cos(62deg) = 340 - 82 = 258 -->
<circle cx="494" cy="258" r="18" fill="url(#moonGlowM8)"/>
<circle cx="494" cy="258" r="12" fill="url(#moonGradM8)"/>
<ellipse cx="491" cy="253" rx="3.5" ry="2.5" fill="#8a7a50" fill-opacity="0.35" transform="rotate(-20,491,253)"/>
<ellipse cx="497" cy="257" rx="2.5" ry="2" fill="#8a7a50" fill-opacity="0.28" transform="rotate(15,497,257)"/>
<ellipse cx="490" cy="261" rx="2" ry="1.5" fill="#8a7a50" fill-opacity="0.22" transform="rotate(-10,490,261)"/>
<ellipse cx="498" cy="252" rx="1.5" ry="1" fill="#8a7a50" fill-opacity="0.2"/>
<circle cx="494" cy="258" r="12" fill="none" stroke="#d0c090" stroke-width="0.4" stroke-opacity="0.3"/>
<circle cx="494" cy="258" r="14" fill="none" stroke="#f0c040" stroke-opacity="0.08" stroke-width="2"/>

</svg>
